<?xml version="1.0" encoding="UTF-8"?> <svg xmlns="http://www.w3.org/2000/svg" xmlns:xlink="http://www.w3.org/1999/xlink" width="882px" height="514px" viewBox="0 0 882 514"><!-- Generator: Sketch 52.6 (67491) - http://www.bohemiancoding.com/sketch --><title>Rating</title><desc>Created with Sketch.</desc><g id="Page-1" stroke="none" stroke-width="1" fill="none" fill-rule="evenodd"><g id="Rating"><g id="Elements" transform="translate(0.000000, 404.000000)"><rect id="Rectangle" stroke="#231F20" stroke-width="15" fill="#FFFFFF" x="7.5" y="7.5" width="867" height="95"></rect><polygon id="Fill-35" fill="#231F20" points="224 73 229 73 229 37 224 37"></polygon><path d="M236,73 L236,47.5742912 L239.941637,47.5742912 L239.941637,51.1897605 C241.840243,48.4011917 244.583341,47 248.166921,47 C249.72452,47 251.15374,47.2762913 252.461601,47.8269005 C253.769462,48.3775096 254.742335,49.0948803 255.394259,49.9938138 C256.045181,50.8917606 256.494508,51.9436411 256.75628,53.1770845 C256.920766,53.9793161 257,55.36768 257,57.366845 L257,73 L252.620069,73 L252.620069,57.5336066 C252.620069,55.7742229 252.449565,54.4697332 252.108559,53.5964553 C251.767552,52.7221906 251.165775,52.0275153 250.295205,51.5134161 C249.426641,50.9983301 248.410641,50.7358534 247.242191,50.7358534 C245.374678,50.7358534 243.768937,51.3219857 242.41193,52.4824092 C241.054924,53.6448063 240.379931,55.8580971 240.379931,59.1143876 L240.379931,73 L236,73 Z" id="Fill-36" fill="#231F20"></path><path d="M297.887747,59.3563253 L297.887747,55.1574726 L313,55.1333297 L313,68.4109187 C310.681905,70.2658982 308.284568,71.6571328 305.821028,72.595688 C303.357488,73.5362551 300.826742,74 298.227788,74 C294.724065,74 291.541323,73.2425165 288.676556,71.7426389 C285.810785,70.2407493 283.650172,68.0568228 282.190705,65.2129904 C280.731238,62.3701639 280,59.1843071 280,55.6705092 C280,52.1929257 280.724217,48.9346402 282.178668,45.9208015 C283.63312,42.9059569 285.719505,40.6606672 288.444846,39.1959979 C291.171191,37.7313287 294.3108,37 297.863674,37 C300.442567,37 302.773701,37.4144531 304.860087,38.2564367 C306.946473,39.0984204 308.577464,40.2582855 309.764096,41.7591691 C310.949725,43.2600527 311.850482,45.2116038 312.464361,47.6168402 L308.206328,48.7877709 C307.670689,46.9700117 307.00766,45.5294853 306.210219,44.4933525 C305.413782,43.4552079 304.282319,42.6132242 302.803793,41.9905386 C301.325268,41.3688589 299.688258,41.0509774 297.887747,41.0509774 C295.728138,41.0509774 293.86644,41.3809304 292.290617,42.0398303 C290.714794,42.6987303 289.448919,43.5648569 288.48196,44.6382099 C287.515,45.712569 286.765707,46.8955711 286.230068,48.1781626 C285.324296,50.386232 284.867899,52.7904625 284.867899,55.3777766 C284.867899,58.5626274 285.414572,61.2354476 286.509924,63.3831598 C287.605277,65.5308719 289.199155,67.1293331 291.292562,68.1664718 C293.384966,69.2036106 295.605763,69.7287186 297.959968,69.7287186 C300.004225,69.7287186 302.000334,69.3374025 303.947293,68.5447106 C305.894252,67.7520187 307.372777,66.9100351 308.37685,66.0187597 L308.37685,59.3563253 L297.887747,59.3563253 Z" id="Fill-38" fill="#231F20"></path><path d="M335.135536,60.4513757 C333.53439,61.0970257 331.12913,61.6554528 327.920769,62.1046006 C326.105192,62.360254 324.822657,62.6530021 324.067094,62.9808399 C323.313554,63.3096803 322.736008,63.7838922 322.325354,64.4034755 C321.9147,65.0240615 321.711396,65.7168319 321.711396,66.4837919 C321.711396,67.6517768 322.159474,68.6232594 323.049562,69.4022502 C323.938638,70.1802384 325.245448,70.570235 326.962913,70.570235 C328.663183,70.570235 330.178355,70.2053024 331.503372,69.4634065 C332.828388,68.7215105 333.803439,67.7119305 334.423466,66.4356689 C334.895819,65.4501504 335.135536,63.99042 335.135536,62.0574802 L335.135536,60.4513757 Z M335.503709,70.2303665 C333.865138,71.6038766 332.294336,72.5773644 330.779164,73.1478222 C329.263992,73.7192826 327.644639,74 325.907957,74 C323.043493,74 320.846595,73.306227 319.307148,71.9196836 C317.766689,70.5341428 317,68.7576028 317,66.6051019 C317,65.3408711 317.288267,64.1859196 317.871881,63.1392447 C318.454484,62.0935725 319.215105,61.2534254 320.153742,60.6218113 C321.09238,59.9891946 322.154417,59.5149827 323.33176,59.1861424 C324.197572,58.9555531 325.50944,58.7369945 327.25826,58.5294642 C330.821645,58.1043779 333.448415,57.6051019 335.135536,57.0216108 C335.153742,56.4250863 335.159811,56.0370948 335.159811,55.8776874 C335.159811,54.0901192 334.743088,52.8379191 333.908631,52.1080539 C332.779838,51.1225354 331.104855,50.624262 328.877613,50.624262 C326.798045,50.624262 325.264666,50.9891946 324.276467,51.7060265 C323.288267,52.4248635 322.551922,53.7021277 322.079568,55.5388214 L317.76062,54.9543277 C318.153068,53.117634 318.798382,51.6468753 319.699595,50.5149827 C320.601821,49.3840927 321.902562,48.5208867 323.601821,47.9123315 C325.300067,47.3047789 327.276467,47 329.514835,47 C331.743088,47 333.546527,47.2556533 334.939312,47.7779882 C336.332097,48.3023282 337.349629,48.945973 338.006069,49.735992 C338.662508,50.528016 339.117667,51.512532 339.380647,52.7166091 C339.528321,53.4575025 339.602158,54.8079537 339.602158,56.7539267 L339.602158,62.5918458 C339.602158,66.6662582 339.693189,69.2328172 339.883345,70.3145817 C340.0735,71.3973488 340.442684,72.4309903 341,73.4165089 L336.386716,73.4165089 C335.9265,72.5031748 335.632165,71.4464743 335.503709,70.2303665 Z" id="Fill-39" fill="#231F20"></path><path d="M347,73 L347,47.5742912 L350.916736,47.5742912 L350.916736,51.1423963 C351.724744,49.8971118 352.807436,48.8916088 354.150775,48.1377282 C355.495116,47.3838476 357.026924,47 358.748203,47 C360.662962,47 362.231862,47.3956886 363.4539,48.1742381 C364.675937,48.9518008 365.540085,50.0530191 366.044339,51.453224 C368.08842,48.4850658 370.745023,47 374.022169,47 C376.581531,47 378.55243,47.6946753 379.932862,49.0948803 C381.313293,50.4950852 382,52.6383164 382,55.5472693 L382,73 L377.646178,73 L377.646178,56.9839842 C377.646178,55.259137 377.506831,54.0148393 377.221121,53.2609587 C376.935411,52.5060913 376.42414,51.8962769 375.676281,51.4295419 C374.928422,50.9628069 374.052244,50.7358534 373.04875,50.7358534 C371.231232,50.7358534 369.723484,51.3338267 368.525506,52.5189191 C367.327528,53.7030248 366.725031,55.6074614 366.725031,58.2282819 L366.725031,73 L362.348151,73 L362.348151,56.4817261 C362.348151,54.5654484 361.989259,53.1287335 361.27749,52.1715815 C360.566723,51.2144294 359.39882,50.7358534 357.774783,50.7358534 C356.540715,50.7358534 355.40389,51.0585221 354.357288,51.6930054 C353.311689,52.3274887 352.5518,53.2609587 352.083636,54.4934153 C351.615473,55.7268587 351.378885,57.4980834 351.378885,59.8080762 L351.378885,73 L347,73 Z" id="Fill-40" fill="#231F20"></path><path d="M390.805456,58.0185667 L405.342062,58.0185667 C405.145034,55.8419235 404.588305,54.211697 403.674904,53.1298923 C402.27146,51.4395098 400.44567,50.6003342 398.207637,50.6003342 C396.179767,50.6003342 394.476235,51.269068 393.09704,52.6185667 C391.717846,53.969068 390.951964,55.7697364 390.805456,58.0185667 M405.292553,65.0979205 L409.852482,65.657371 C409.136109,68.2962124 407.799352,70.3525436 405.856355,71.8113257 C403.913358,73.2701077 401.425757,74 398.404665,74 C394.598493,74 391.577401,72.8319718 389.34644,70.5099517 C387.11548,68.1869291 386,64.9154475 386,60.7185667 C386,56.3763089 387.127605,52.995544 389.382815,50.6003342 C391.639035,48.2041218 394.562118,47 398.159138,47 C401.639961,47 404.483223,48.1800594 406.689934,50.5271444 C408.896645,52.8742295 410,56.1828073 410,60.4518752 L409.97474,61.6189009 L390.559929,61.6189009 C390.725635,64.4532492 391.534964,66.6298923 392.986907,68.1388043 C394.43986,69.6467137 396.253526,70.4006684 398.428914,70.4006684 C400.046563,70.4006684 401.425757,69.9745637 402.572559,69.135388 C403.718351,68.2962124 404.624679,66.9457111 405.292553,65.0979205" id="Fill-41" fill="#231F20"></path><path d="M434.680994,54.1163968 L443.826188,54.1163968 C446.848398,54.1163968 448.99547,53.5394737 450.267403,52.3967611 C451.541326,51.2550607 452.173812,49.6346154 452.173812,47.5587045 C452.173812,46.0495951 451.79989,44.7601215 451.05105,43.6923077 C450.303204,42.6234818 449.320663,41.9109312 448.096464,41.5688259 C447.306851,41.3593117 445.852928,41.2489879 443.729724,41.2489879 L434.680994,41.2489879 L434.680994,54.1163968 Z M430,73 L430,37 L443.342873,37 C445.689834,37 447.486851,37.1103239 448.723978,37.3441296 C450.461326,37.6396761 451.915249,38.2034413 453.090718,39.0263158 C454.267182,39.8481781 455.207956,41.0161943 455.925967,42.5 C456.642983,43.98583 457,45.6315789 457,47.4129555 C457,50.4686235 456.040331,53.0597166 454.127956,55.1852227 C452.21558,57.3087045 448.754807,58.3633603 443.753591,58.3633603 L434.680994,58.3633603 L434.680994,73 L430,73 Z" id="Fill-42" fill="#231F20"></path><path d="M479.073244,73.4257088 L479.073244,69.6908422 C477.054574,72.5632851 474.31811,74 470.853799,74 C469.323711,74 467.896165,73.7128544 466.573172,73.1385631 C465.25018,72.5632851 464.262961,71.8449277 463.622576,70.9716498 C462.981186,70.0973851 462.530806,69.0326768 462.268419,67.7755513 C462.090478,66.9249687 462,65.5859425 462,63.7525523 L462,48 L466.390205,48 L466.390205,62.1007249 C466.390205,64.3524991 466.482694,65.8730882 466.658624,66.6506509 C466.933075,67.7873923 467.518167,68.673498 468.413902,69.3198224 C469.310642,69.9661467 470.415482,70.2898023 471.731438,70.2898023 C473.049404,70.2898023 474.286945,69.9543057 475.439035,69.2951535 C476.591125,68.6369881 477.40945,67.728187 477.88999,66.5904588 C478.372541,65.4537174 478.609795,63.7890622 478.609795,61.6231356 L478.609795,48 L483,48 L483,73.4257088 L479.073244,73.4257088 Z" id="Fill-43" fill="#231F20"></path><path d="M490,73 L490,47.5742912 L493.931281,47.5742912 L493.931281,51.4295419 C494.932352,49.6218073 495.859419,48.4367149 496.709479,47.8614369 C497.55854,47.2881324 498.492607,47 499.511679,47 C500.985785,47 502.477891,47.4677217 504,48.3893506 L502.495893,52.386694 C501.428816,51.7640518 500.36074,51.453224 499.293664,51.453224 C498.341596,51.453224 497.479534,51.7403697 496.72248,52.3028198 C495.963426,52.8662568 495.417387,53.6556606 495.095364,54.6611636 C494.610329,56.1935937 494.368312,57.8691032 494.368312,59.6896656 L494.368312,73 L490,73 Z" id="Fill-44" fill="#231F20"></path><path d="M523.789403,63.9533252 L528,64.5137574 C527.542177,67.4813412 526.364779,69.803275 524.467804,71.4825666 C522.57083,73.1608555 520.246424,74 517.486743,74 C514.031995,74 511.249766,72.8440459 509.14986,70.5331402 C507.051914,68.2232372 506,64.9147822 506,60.5967472 C506,57.8116297 506.45096,55.3673833 507.353861,53.2760388 C508.258723,51.1846942 509.632191,49.614682 511.481128,48.5680071 C513.331046,47.5233374 515.34076,47 517.511252,47 C520.252306,47 522.500245,47.7058037 524.242324,49.1284393 C525.984404,50.551075 527.102001,52.5582043 527.596096,55.1728863 L523.433537,55.8295644 C523.034535,54.0901192 522.333586,52.7887936 521.327748,51.9125543 C520.323871,51.0373176 519.104318,50.6002005 517.677911,50.6002005 C515.518203,50.6002005 513.770242,51.391222 512.420302,52.9722624 C511.071343,54.5523003 510.398824,57.057703 510.398824,60.4744347 C510.398824,63.9412944 511.047814,66.4717612 512.349717,68.0397683 C513.65162,69.608778 515.346642,70.3997995 517.439686,70.3997995 C519.121964,70.3997995 520.525823,69.8764621 521.649303,68.8187591 C522.772782,67.761056 523.486476,66.1429208 523.789403,63.9533252" id="Fill-45" fill="#231F20"></path><path d="M531,73 L531,37 L535.369913,37 L535.369913,49.9159919 C537.409273,47.5222672 539.982989,46.3309717 543.09006,46.3309717 C545.002335,46.3309717 546.658439,46.7115385 548.067378,47.4726721 C549.476318,48.2338057 550.483989,49.2904858 551.089393,50.6285425 C551.697799,51.9676113 552,53.9190283 552,56.4736842 L552,73 L547.630087,73 L547.630087,56.4736842 C547.630087,54.2631579 547.156771,52.6538462 546.21014,51.6477733 C545.263509,50.6406883 543.921614,50.1376518 542.192462,50.1376518 C540.8996,50.1376518 539.679787,50.4817814 538.538025,51.1568826 C537.397265,51.8319838 536.583722,52.7530364 536.098399,53.9190283 C535.612075,55.0860324 535.369913,56.6821862 535.369913,58.7317814 L535.369913,73 L531,73 Z" id="Fill-46" fill="#231F20"></path><path d="M575.134772,60.4513757 C573.533693,61.0970257 571.128535,61.6554528 567.919297,62.1046006 C566.103797,62.360254 564.822327,62.6530021 564.067807,62.9808399 C563.313288,63.3096803 562.735766,63.7838922 562.32513,64.4034755 C561.914493,65.0240615 561.712209,65.7168319 561.712209,66.4837919 C561.712209,67.6517768 562.159257,68.6232594 563.049307,69.4022502 C563.938345,70.1802384 565.245101,70.570235 566.963505,70.570235 C568.662691,70.570235 570.177799,70.2053024 571.50276,69.4634065 C572.828733,68.7215105 573.803742,67.7119305 574.422732,66.4356689 C574.896077,65.4501504 575.134772,63.99042 575.134772,62.0574802 L575.134772,60.4513757 Z M575.502929,70.2303665 C573.864427,71.6038766 572.293691,72.5773644 570.778583,73.1478222 C569.263475,73.7192826 567.644191,74 565.907581,74 C563.043238,74 560.846433,73.306227 559.30705,71.9196836 C557.766657,70.5341428 557,68.7576028 557,66.6051019 C557,65.3408711 557.288255,64.1859196 557.871845,63.1392447 C558.454423,62.0935725 559.215011,61.2534254 560.152598,60.6218113 C561.092208,59.9891946 562.153188,59.5149827 563.331493,59.1861424 C564.196258,58.9555531 565.50807,58.7369945 567.257828,58.5294642 C570.821063,58.1043779 573.447722,57.6051019 575.134772,57.0216108 C575.152977,56.4250863 575.159046,56.0370948 575.159046,55.8776874 C575.159046,54.0901192 574.741329,52.8379191 573.906907,52.1080539 C572.779173,51.1225354 571.104261,50.624262 568.877112,50.624262 C566.797632,50.624262 565.263307,50.9891946 564.27616,51.7060265 C563.288002,52.4248635 562.552699,53.7021277 562.079354,55.5388214 L557.760588,54.9543277 C558.15302,53.117634 558.798306,51.6468753 559.699482,50.5149827 C560.601669,49.3840927 561.901344,48.5208867 563.601542,47.9123315 C565.299718,47.3047789 567.275022,47 569.514307,47 C571.742467,47 573.54583,47.2556533 574.938556,47.7779882 C576.331282,48.3023282 577.348772,48.945973 578.005184,49.735992 C578.661596,50.528016 579.115723,51.512532 579.378693,52.7166091 C579.527372,53.4575025 579.600194,54.8079537 579.600194,56.7539267 L579.600194,62.5918458 C579.600194,66.6662582 579.692233,69.2328172 579.88238,70.3145817 C580.073539,71.3973488 580.440684,72.4309903 581,73.4165089 L576.385899,73.4165089 C575.925703,72.5031748 575.631379,71.4464743 575.502929,70.2303665 Z" id="Fill-47" fill="#231F20"></path><path d="M585,65.7054957 L589.237686,65.0237282 C589.477147,66.7642406 590.136648,68.0896769 591.226984,69.0140735 C592.315357,69.9384701 593.833583,70.4006684 595.785587,70.4006684 C597.756239,70.4006684 599.214599,69.9875975 600.167539,69.1714816 C601.119497,68.357371 601.595476,67.3968808 601.595476,66.2890085 C601.595476,65.304456 601.172493,64.5254363 600.333396,63.9539547 C599.743574,63.5649462 598.286195,63.0666543 595.952425,62.4701077 C592.809982,61.655997 590.631274,60.9632009 589.417282,60.3666543 C588.20329,59.7701077 587.279793,58.955997 586.655622,57.9092833 C586.029489,56.8645748 585.714459,55.7075752 585.714459,54.4432974 C585.714459,53.288303 585.970605,52.2295581 586.488784,51.244003 C587.005982,50.2594504 587.708664,49.4443372 588.594869,48.7996658 C589.262221,48.3023765 590.17296,47.8752692 591.321198,47.5233569 C592.470418,47.1704419 593.708945,47 595.024021,47 C597.006449,47 598.750397,47.292759 600.249977,47.8752692 C601.750537,48.4597846 602.857557,49.2498329 603.572997,50.2474192 C604.286475,51.244003 604.78012,52.5824731 605.049023,54.2477906 L600.857463,54.832306 C600.667072,53.5068697 600.113562,52.460156 599.203804,51.7192351 C598.292083,50.9773115 597.000561,50.6003342 595.333162,50.6003342 C593.363492,50.6003342 591.959108,50.9281842 591.11903,51.5979205 C590.279933,52.2666543 589.856949,53.0446714 589.856949,53.9329744 C589.856949,54.504456 590.029676,55.0147791 590.381017,55.4649462 C590.732358,55.9391756 591.279979,56.3281842 592.023881,56.6329744 C592.452753,56.7903825 593.714833,57.1673598 595.810122,57.7508726 C598.840686,58.5790197 600.959529,59.258782 602.154874,59.7831415 C603.351201,60.3054957 604.292364,61.0724842 604.9764,62.0821017 C605.661417,63.0917193 606,64.3319346 606,65.8268102 C606,67.2865949 605.583886,68.6611586 604.750678,69.9494987 C603.917469,71.239844 602.715254,72.2374304 601.143051,72.9422577 C599.571829,73.6480876 597.791569,74 595.810122,74 C592.524395,74 590.017899,73.3072039 588.297504,71.9085778 C586.57711,70.5099517 585.475979,68.4415893 585,65.7054957" id="Fill-48" fill="#231F20"></path><path d="M614.804648,58.0185667 L629.341866,58.0185667 C629.14483,55.8419235 628.589087,54.211697 627.674638,53.1298923 C626.271135,51.4395098 624.445268,50.6003342 622.208151,50.6003342 C620.179185,50.6003342 618.475581,51.269068 617.097339,52.6185667 C615.717076,53.969068 614.952172,55.7697364 614.804648,58.0185667 M629.293365,65.0979205 L633.852476,65.657371 C633.136073,68.2962124 631.799259,70.3525436 629.856181,71.8113257 C627.914112,73.2701077 625.426406,74 622.404176,74 C618.598855,74 615.576625,72.8319718 613.346581,70.5099517 C611.115527,68.1869291 610,64.9154475 610,60.7185667 C610,56.3763089 611.127652,52.995544 613.382957,50.6003342 C615.638262,48.2041218 618.561469,47 622.158639,47 C625.64062,47 628.484001,48.1800594 630.690805,50.5271444 C632.896598,52.8742295 634,56.1828073 634,60.4518752 L633.975749,61.6189009 L614.559111,61.6189009 C614.724823,64.4532492 615.534187,66.6298923 616.986191,68.1388043 C618.439205,69.6467137 620.253958,70.4006684 622.428427,70.4006684 C624.046143,70.4006684 625.426406,69.9745637 626.572247,69.135388 C627.717076,68.2962124 628.624453,66.9457111 629.293365,65.0979205" id="Fill-49" fill="#231F20"></path><path d="M638,65.7054957 L642.237686,65.0237282 C642.476166,66.7642406 643.136648,68.0896769 644.226002,69.0140735 C645.315357,69.9384701 646.833583,70.4006684 648.785587,70.4006684 C650.756239,70.4006684 652.213618,69.9875975 653.166558,69.1714816 C654.119497,68.357371 654.595476,67.3968808 654.595476,66.2890085 C654.595476,65.304456 654.172493,64.5254363 653.333396,63.9539547 C652.744556,63.5649462 651.286195,63.0666543 648.952425,62.4701077 C645.809982,61.655997 643.630293,60.9632009 642.416301,60.3666543 C641.202309,59.7701077 640.278811,58.955997 639.654641,57.9092833 C639.029489,56.8645748 638.714459,55.7075752 638.714459,54.4432974 C638.714459,53.288303 638.969623,52.2295581 639.487803,51.244003 C640.005982,50.2594504 640.707683,49.4443372 641.594869,48.7996658 C642.262221,48.3023765 643.17296,47.8752692 644.321198,47.5233569 C645.470418,47.1704419 646.707963,47 648.024021,47 C650.005468,47 651.750397,47.292759 653.250958,47.8752692 C654.750537,48.4597846 655.857557,49.2498329 656.572016,50.2474192 C657.286475,51.244003 657.78012,52.5824731 658.049023,54.2477906 L653.857463,54.832306 C653.667072,53.5068697 653.112581,52.460156 652.202823,51.7192351 C651.292083,50.9773115 650.000561,50.6003342 648.333162,50.6003342 C646.362511,50.6003342 644.958127,50.9281842 644.118048,51.5979205 C643.279933,52.2666543 642.856949,53.0446714 642.856949,53.9329744 C642.856949,54.504456 643.029676,55.0147791 643.380036,55.4649462 C643.732358,55.9391756 644.278998,56.3281842 645.023881,56.6329744 C645.452753,56.7903825 646.714833,57.1673598 648.810122,57.7508726 C651.839705,58.5790197 653.959529,59.258782 655.154874,59.7831415 C656.351201,60.3054957 657.291382,61.0724842 657.9764,62.0821017 C658.661417,63.0917193 659,64.3319346 659,65.8268102 C659,67.2865949 658.584868,68.6611586 657.750678,69.9494987 C656.916488,71.239844 655.715254,72.2374304 654.143051,72.9422577 C652.571829,73.6480876 650.791569,74 648.810122,74 C645.523413,74 643.016917,73.3072039 641.296523,71.9085778 C639.57711,70.5099517 638.474998,68.4415893 638,65.7054957" id="Fill-50" fill="#231F20"></path><polygon id="Fill-37" fill="#231F20" points="262 62 275 62 275 58 262 58"></polygon></g><g id="Descriptors" transform="translate(259.000000, 0.000000)"><rect id="Rectangle" stroke="#231F20" stroke-width="15" fill="#FFFFFF" x="7.5" y="7.5" width="608" height="404"></rect><path d="M83.9269,168.3244 L89.6779,170.0854 C88.4099,176.0064 86.1859,180.4174 83.0079,183.3344 C79.8339,186.2414 75.9719,187.6984 71.4179,187.6984 C67.4179,187.6984 63.9979,186.7234 61.1539,184.7664 C58.3189,182.8154 55.9919,179.6774 54.1799,175.3594 C52.3729,171.0454 51.4689,165.9524 51.4689,160.0734 C51.4689,154.2704 52.3729,149.3614 54.1859,145.3454 C55.9979,141.3304 58.4469,138.2954 61.5439,136.2474 C64.6349,134.1974 68.0909,133.1714 71.9059,133.1714 C76.0809,133.1714 79.6649,134.4704 82.6639,137.0634 C85.6619,139.6564 87.7579,143.4614 88.9589,148.4834 L83.3519,150.1004 C81.4309,142.7934 77.5799,139.1374 71.7989,139.1374 C68.9179,139.1374 66.4219,139.8774 64.3119,141.3504 C62.2009,142.8244 60.5109,145.1194 59.2539,148.2414 C57.9959,151.3594 57.3639,155.3034 57.3639,160.0734 C57.3639,167.2924 58.6319,172.7094 61.1739,176.3204 C63.7159,179.9294 67.0939,181.7314 71.3099,181.7314 C74.4269,181.7314 77.1129,180.6234 79.3829,178.4044 C81.6419,176.1914 83.1609,172.8284 83.9269,168.3244" id="Fill-51" fill="#231F20"></path><path d="M99.4909,167.693 C99.4909,172.638 100.3889,176.315 102.1859,178.728 C103.9839,181.136 106.2119,182.343 108.8729,182.343 C111.3629,182.343 113.5039,181.126 115.2859,178.692 C117.0739,176.254 117.9669,172.591 117.9669,167.693 C117.9669,162.778 117.0679,159.113 115.2709,156.699 C113.4739,154.291 111.2449,153.084 108.5849,153.084 C106.0689,153.084 103.9229,154.297 102.1509,156.719 C100.3789,159.143 99.4909,162.8 99.4909,167.693 M94.0639,167.713 C94.0639,161.126 95.4449,156.15 98.2179,152.797 C100.9799,149.443 104.4879,147.765 108.7289,147.765 C112.8989,147.765 116.3849,149.443 119.1879,152.797 C121.9919,156.15 123.3939,160.992 123.3939,167.318 C123.3939,174.173 122.0179,179.278 119.2609,182.631 C116.5039,185.983 112.9959,187.663 108.7289,187.663 C104.5339,187.663 101.0409,185.979 98.2479,182.615 C95.4599,179.246 94.0639,174.282 94.0639,167.713" id="Fill-52" fill="#231F20"></path><path d="M129.6848,186.8004 L129.6848,148.6274 L134.4288,148.6274 L134.4288,153.9474 C135.4808,151.9704 136.8328,150.4454 138.4858,149.3714 C140.1338,148.2994 141.9418,147.7644 143.9028,147.7644 C146.1008,147.7644 147.9648,148.3294 149.4848,149.4644 C150.9988,150.5934 152.0838,152.2464 152.7298,154.4144 C153.9828,152.2004 155.4148,150.5364 157.0378,149.4284 C158.6658,148.3184 160.4628,147.7644 162.4348,147.7644 C165.4388,147.7644 167.8068,148.7804 169.5368,150.8194 C171.2678,152.8574 172.1348,156.1134 172.1348,160.5964 L172.1348,186.8004 L166.8518,186.8004 L166.8518,162.7274 C166.8518,159.9904 166.6508,158.0544 166.2548,156.9144 C165.8548,155.7744 165.2128,154.8964 164.3198,154.2704 C163.4318,153.6484 162.4298,153.3364 161.3208,153.3364 C159.0308,153.3364 157.1668,154.2394 155.7188,156.0524 C154.2748,157.8644 153.5518,160.7144 153.5518,164.5974 L153.5518,186.8004 L148.2678,186.8004 L148.2678,161.9724 C148.2678,158.8044 147.7798,156.5764 146.8148,155.2764 C145.8388,153.9834 144.5038,153.3364 142.8038,153.3364 C140.3848,153.3364 138.4758,154.3114 137.0678,156.2684 C135.6718,158.2244 134.9678,161.7934 134.9678,166.9734 L134.9678,186.8004 L129.6848,186.8004 Z" id="Fill-53" fill="#231F20"></path><path d="M179.935,186.8 L185.218,186.8 L185.218,148.627 L179.935,148.627 L179.935,186.8 Z M179.935,141.546 L185.218,141.546 L185.218,134.105 L179.935,134.105 L179.935,141.546 Z" id="Fill-54" fill="#231F20"></path><path d="M213.8303,172.818 L219.0423,173.644 C218.4413,178.199 216.9363,181.671 214.5333,184.068 C212.1203,186.466 209.2293,187.663 205.8513,187.663 C201.7533,187.663 198.3803,185.979 195.7293,182.615 C193.0863,179.246 191.7613,174.266 191.7613,167.677 C191.7613,161.038 193.0963,156.062 195.7713,152.74 C198.4413,149.423 201.8713,147.765 206.0673,147.765 C209.3023,147.765 212.0273,148.771 214.2463,150.784 C216.4593,152.797 217.8823,155.816 218.5043,159.841 L213.3633,160.776 C212.8603,158.199 211.9863,156.274 210.7393,155 C209.4913,153.721 207.9973,153.084 206.2463,153.084 C203.6333,153.084 201.4713,154.239 199.7563,156.55 C198.0463,158.866 197.1873,162.538 197.1873,167.57 C197.1873,172.772 198.0103,176.53 199.6533,178.856 C201.2913,181.182 203.3953,182.343 205.9593,182.343 C207.9723,182.343 209.6923,181.568 211.1133,180.026 C212.5423,178.477 213.4453,176.079 213.8303,172.818" id="Fill-55" fill="#231F20"></path><path d="M240.8976,186.8004 L240.8976,134.1054 L249.4926,134.1054 L259.7476,171.4164 L261.7956,179.2164 C262.3046,177.2744 263.0706,174.4604 264.1016,170.7694 L274.4636,134.1054 L282.1616,134.1054 L282.1616,186.8004 L276.6616,186.8004 L276.6616,142.7274 L264.0606,186.8004 L258.9256,186.8004 L246.3966,141.9724 L246.3966,186.8004 L240.8976,186.8004 Z" id="Fill-56" fill="#231F20"></path><path d="M290.609,186.8 L295.893,186.8 L295.893,148.627 L290.609,148.627 L290.609,186.8 Z M290.609,141.546 L295.893,141.546 L295.893,134.105 L290.609,134.105 L290.609,141.546 Z" id="Fill-57" fill="#231F20"></path><path d="M301.967,175.3703 L307.25,174.3643 C307.559,177.0593 308.411,179.0613 309.797,180.3763 C311.185,181.6863 313.023,182.3433 315.318,182.3433 C317.613,182.3433 319.39,181.7733 320.643,180.6333 C321.901,179.4973 322.528,178.0553 322.528,176.3043 C322.528,174.7953 321.988,173.6193 320.91,172.7823 C320.165,172.2063 318.368,171.4873 315.519,170.6253 C311.395,169.3573 308.643,168.2793 307.25,167.3903 C305.859,166.5013 304.781,165.3153 304.016,163.8313 C303.251,162.3473 302.865,160.6583 302.865,158.7643 C302.865,155.5023 303.908,152.8573 305.992,150.8193 C308.077,148.7803 310.964,147.7653 314.655,147.7653 C316.981,147.7653 319.021,148.1853 320.786,149.0223 C322.542,149.8593 323.894,150.9893 324.827,152.4013 C325.762,153.8133 326.409,155.8413 326.769,158.4753 L321.593,159.3393 C321.115,155.1693 318.851,153.0833 314.799,153.0833 C312.499,153.0833 310.783,153.5413 309.658,154.4603 C308.534,155.3793 307.97,156.5553 307.97,157.9873 C307.97,159.3943 308.509,160.5043 309.592,161.3153 C310.239,161.7933 312.159,162.5573 315.353,163.6103 C319.743,165.0023 322.583,166.1113 323.872,166.9433 C325.161,167.7703 326.163,168.8993 326.881,170.3273 C327.595,171.7543 327.955,173.4543 327.955,175.4213 C327.955,179.0663 326.799,182.0193 324.484,184.2783 C322.173,186.5333 319.015,187.6623 315.015,187.6623 C307.512,187.6623 303.163,183.5653 301.967,175.3703" id="Fill-58" fill="#231F20"></path><path d="M354.6984,172.818 L359.9104,173.644 C359.3084,178.199 357.8094,181.671 355.3964,184.068 C352.9924,186.466 350.0964,187.663 346.7184,187.663 C342.6204,187.663 339.2464,185.979 336.6024,182.615 C333.9524,179.246 332.6274,174.266 332.6274,167.677 C332.6274,161.038 333.9634,156.062 336.6334,152.74 C339.3084,149.423 342.7374,147.765 346.9334,147.765 C350.1694,147.765 352.8954,148.771 355.1084,150.784 C357.3274,152.797 358.7494,155.816 359.3704,159.841 L354.2294,160.776 C353.7274,158.199 352.8544,156.274 351.6064,155 C350.3584,153.721 348.8644,153.084 347.1134,153.084 C344.4994,153.084 342.3384,154.239 340.6284,156.55 C338.9134,158.866 338.0544,162.538 338.0544,167.57 C338.0544,172.772 338.8774,176.53 340.5144,178.856 C342.1584,181.182 344.2634,182.343 346.8254,182.343 C348.8384,182.343 350.5584,181.568 351.9854,180.026 C353.4084,178.477 354.3114,176.079 354.6984,172.818" id="Fill-59" fill="#231F20"></path><path d="M364.4025,186.8004 L364.4025,134.1054 L369.6855,134.1054 L369.6855,153.0124 C370.9345,151.2614 372.3405,149.9514 373.9125,149.0734 C375.4785,148.2014 377.2095,147.7644 379.1045,147.7644 C382.4365,147.7644 385.0665,148.8264 386.9965,150.9424 C388.9215,153.0694 389.8865,156.9554 389.8865,162.6094 L389.8865,186.8004 L384.6035,186.8004 L384.6035,162.6094 C384.6035,159.3024 384.0175,156.9304 382.8415,155.4914 C381.6665,154.0544 380.0485,153.3364 377.9895,153.3364 C375.6885,153.3364 373.7275,154.2594 372.1155,156.1034 C370.4925,157.9464 369.6855,161.2184 369.6855,165.9154 L369.6855,186.8004 L364.4025,186.8004 Z" id="Fill-60" fill="#231F20"></path><path d="M397.975,186.8 L403.258,186.8 L403.258,148.627 L397.975,148.627 L397.975,186.8 Z M397.975,141.546 L403.258,141.546 L403.258,134.105 L397.975,134.105 L397.975,141.546 Z" id="Fill-61" fill="#231F20"></path><path d="M415.3361,164.047 L432.8051,164.047 C432.5651,160.741 431.8601,158.271 430.6841,156.643 C428.9841,154.27 426.8131,153.084 424.1791,153.084 C421.8061,153.084 419.7821,154.075 418.1051,156.047 C416.4251,158.028 415.5061,160.694 415.3361,164.047 M432.7701,174.506 L438.2321,175.334 C437.3241,179.406 435.6761,182.481 433.2931,184.556 C430.9041,186.626 427.9531,187.663 424.4301,187.663 C419.9981,187.663 416.4091,185.979 413.6671,182.615 C410.9191,179.246 409.5491,174.389 409.5491,168.037 C409.5491,161.448 410.9361,156.422 413.6981,152.956 C416.4711,149.495 419.9731,147.765 424.2141,147.765 C428.2671,147.765 431.6441,149.464 434.3511,152.868 C437.0571,156.274 438.4121,161.197 438.4121,167.642 L438.3771,169.367 L415.0131,169.367 C415.2281,173.655 416.2241,176.89 417.9961,179.072 C419.7681,181.254 421.9241,182.343 424.4661,182.343 C428.4461,182.343 431.2131,179.729 432.7701,174.506" id="Fill-62" fill="#231F20"></path><path d="M446.4279,186.8004 L446.4279,153.6584 L441.7199,153.6584 L441.7199,148.6274 L446.4279,148.6274 L446.4279,144.5654 C446.4279,141.5714 446.7409,139.3214 447.3639,137.8274 C447.9889,136.3294 448.9449,135.1834 450.2279,134.3934 C451.5169,133.6024 453.1289,133.2064 455.0749,133.2064 C456.5899,133.2064 458.2479,133.4324 460.0509,133.8894 L459.2599,139.4964 C458.1569,139.2564 457.1139,139.1374 456.1339,139.1374 C454.5519,139.1374 453.4229,139.5534 452.7339,140.3744 C452.0569,141.2064 451.7129,142.7784 451.7129,145.1044 L451.7129,148.6274 L457.8229,148.6274 L457.8229,153.6584 L451.7129,153.6584 L451.7129,186.8004 L446.4279,186.8004 Z" id="Fill-63" fill="#231F20"></path><path d="M53.0866,265.8839 L53.0866,213.1879 L61.6826,213.1879 L71.9376,250.4989 L73.9906,258.2989 C74.4936,256.3579 75.2596,253.5439 76.2906,249.8529 L86.6536,213.1879 L94.3506,213.1879 L94.3506,265.8839 L88.8516,265.8839 L88.8516,221.8109 L76.2496,265.8839 L71.1146,265.8839 L58.5856,221.0559 L58.5856,265.8839 L53.0866,265.8839 Z" id="Fill-64" fill="#231F20"></path><path d="M102.798,265.884 L108.082,265.884 L108.082,227.711 L102.798,227.711 L102.798,265.884 Z M102.798,220.629 L108.082,220.629 L108.082,213.188 L102.798,213.188 L102.798,220.629 Z" id="Fill-65" fill="#231F20"></path><polygon id="Fill-66" fill="#231F20" points="116.025 265.884 121.309 265.884 121.309 213.188 116.025 213.188"></polygon><path d="M133.0993,246.8332 C133.0993,251.7682 133.9563,255.4342 135.6713,257.8312 C137.3873,260.2302 139.3783,261.4262 141.6583,261.4262 C143.9133,261.4262 145.8693,260.2762 147.5233,257.9762 C149.1773,255.6752 150.0033,252.1992 150.0033,247.5512 C150.0033,242.2062 149.1773,238.3092 147.5233,235.8492 C145.8693,233.3952 143.7793,232.1672 141.2633,232.1672 C139.0353,232.1672 137.1143,233.3482 135.5073,235.7052 C133.8993,238.0682 133.0993,241.7752 133.0993,246.8332 Z M149.8853,265.8842 L149.8853,261.0672 C148.9253,262.9102 147.6933,264.3162 146.1823,265.2932 C144.6733,266.2582 143.0453,266.7462 141.2943,266.7462 C137.6023,266.7462 134.4083,265.0062 131.7173,261.5132 C129.0163,258.0322 127.6713,253.1232 127.6713,246.7962 C127.6713,242.4582 128.2663,238.7812 129.4633,235.7622 C130.6593,232.7422 132.2573,230.5032 134.2543,229.0412 C136.2523,227.5772 138.4753,226.8482 140.9143,226.8482 C142.6613,226.8482 144.2783,227.3102 145.7763,228.2292 C147.2713,229.1532 148.5093,230.4422 149.4903,232.0962 L149.4903,213.1882 L154.8453,213.1882 L154.8453,265.8842 L149.8853,265.8842 Z" id="Fill-67" fill="#231F20"></path><polygon id="Fill-68" fill="#231F20" points="180.3664 265.8839 180.3664 213.1879 186.0824 213.1879 186.0824 259.6649 207.3604 259.6649 207.3604 265.8839"></polygon><path d="M211.1711,280.5841 L210.5961,274.5101 C211.7721,274.8951 212.7771,275.0851 213.6201,275.0851 C214.7441,275.0851 215.6741,274.8591 216.4031,274.4021 C217.1381,273.9451 217.7431,273.2361 218.2211,272.2821 C218.3901,271.9421 219.0831,269.8321 220.3111,265.9391 L208.4021,227.7101 L214.1181,227.7101 L220.6591,249.8061 C221.4771,252.5581 222.2321,255.5061 222.9251,258.6441 C223.5251,255.6701 224.2441,252.7741 225.0821,249.9491 L231.7671,227.7101 L237.0871,227.7101 L225.2101,266.5301 C223.6531,271.5631 222.4211,274.9261 221.5231,276.6101 C220.6181,278.3051 219.6031,279.5171 218.4631,280.2621 C217.3221,281.0061 216.0331,281.3751 214.5911,281.3751 C213.5841,281.3751 212.4441,281.1131 211.1711,280.5841" id="Fill-69" fill="#231F20"></path><path d="M241.5441,265.8839 L241.5441,227.7109 L246.3241,227.7109 L246.3241,233.4979 C247.5471,230.8119 248.6661,229.0349 249.6881,228.1569 C250.7051,227.2839 251.8501,226.8479 253.1181,226.8479 C254.8891,226.8479 256.7021,227.5409 258.5461,228.9319 L256.7481,234.9349 C255.4291,233.9999 254.1501,233.5329 252.9021,233.5329 C251.7771,233.5329 250.7461,233.9289 249.8111,234.7189 C248.8771,235.5099 248.2201,236.6139 247.8341,238.0259 C247.1621,240.4959 246.8271,243.1199 246.8271,245.8989 L246.8271,265.8839 L241.5441,265.8839 Z" id="Fill-70" fill="#231F20"></path><path d="M261.637,265.884 L266.921,265.884 L266.921,227.711 L261.637,227.711 L261.637,265.884 Z M261.637,220.629 L266.921,220.629 L266.921,213.188 L261.637,213.188 L261.637,220.629 Z" id="Fill-71" fill="#231F20"></path><path d="M295.5334,251.901 L300.7454,252.728 C300.1444,257.282 298.6444,260.754 296.2314,263.151 C293.8284,265.549 290.9314,266.746 287.5534,266.746 C283.4554,266.746 280.0814,265.062 277.4374,261.698 C274.7874,258.33 273.4624,253.349 273.4624,246.761 C273.4624,240.122 274.7984,235.146 277.4684,231.823 C280.1434,228.506 283.5734,226.848 287.7684,226.848 C291.0034,226.848 293.7304,227.855 295.9434,229.867 C298.1624,231.88 299.5844,234.9 300.2054,238.925 L295.0644,239.86 C294.5624,237.281 293.6894,235.356 292.4414,234.082 C291.1934,232.804 289.6994,232.167 287.9484,232.167 C285.3354,232.167 283.1734,233.323 281.4634,235.633 C279.7484,237.949 278.8904,241.62 278.8904,246.653 C278.8904,251.855 279.7124,255.613 281.3494,257.94 C282.9934,260.266 285.0984,261.426 287.6604,261.426 C289.6734,261.426 291.3934,260.651 292.8214,259.11 C294.2434,257.56 295.1474,255.161 295.5334,251.901" id="Fill-72" fill="#231F20"></path><path d="M303.1887,254.4533 L308.4717,253.4473 C308.7807,256.1423 309.6327,258.1443 311.0197,259.4593 C312.4067,260.7683 314.2447,261.4263 316.5397,261.4263 C318.8347,261.4263 320.6117,260.8553 321.8657,259.7163 C323.1227,258.5813 323.7497,257.1383 323.7497,255.3873 C323.7497,253.8783 323.2097,252.7023 322.1317,251.8653 C321.3877,251.2903 319.5897,250.5713 316.7407,249.7083 C312.6167,248.4403 309.8647,247.3613 308.4717,246.4743 C307.0817,245.5853 306.0027,244.3983 305.2377,242.9143 C304.4727,241.4313 304.0877,239.7413 304.0877,237.8473 C304.0877,234.5863 305.1297,231.9413 307.2147,229.9033 C309.2997,227.8643 312.1857,226.8483 315.8767,226.8483 C318.2037,226.8483 320.2427,227.2683 322.0087,228.1053 C323.7637,228.9433 325.1157,230.0723 326.0487,231.4843 C326.9847,232.8973 327.6307,234.9243 327.9907,237.5583 L322.8147,238.4213 C322.3367,234.2523 320.0727,232.1673 316.0207,232.1673 C313.7207,232.1673 312.0057,232.6243 310.8817,233.5433 C309.7557,234.4633 309.1917,235.6393 309.1917,237.0713 C309.1917,238.4783 309.7307,239.5873 310.8147,240.3983 C311.4607,240.8753 313.3807,241.6413 316.5767,242.6943 C320.9657,244.0853 323.8057,245.1953 325.0947,246.0263 C326.3837,246.8533 327.3847,247.9823 328.1037,249.4113 C328.8177,250.8383 329.1767,252.5373 329.1767,254.5043 C329.1767,258.1493 328.0217,261.1023 325.7057,263.3613 C323.3947,265.6163 320.2367,266.7463 316.2367,266.7463 C308.7347,266.7463 304.3857,262.6483 303.1887,254.4533" id="Fill-73" fill="#231F20"></path></g><g id="Category"><rect id="Rectangle" stroke="#000000" stroke-width="15" fill="#FFFFFF" x="7.5" y="7.5" width="259" height="404"></rect><rect id="Rectangle" stroke="#231F20" stroke-width="15" fill="#FFFFFF" x="7.5" y="91.5" width="259" height="320"></rect><rect id="Rectangle" fill="#231F20" x="0" y="353" width="274" height="66"></rect><g id="ESRB" transform="translate(12.000000, 367.000000)" fill="#FFFFFF"><path d="M93.6335,10.9845 C93.3185,9.8495 92.2015,9.0975 90.7585,8.7035 C89.3445,8.2665 87.5985,8.0795 85.6205,8.0795 C81.2535,8.0795 79.3005,8.7895 79.3005,10.0445 C79.3005,15.0425 114.1835,11.9065 114.1835,24.1955 C114.1835,32.0255 102.4585,35.8405 85.7905,35.8405 C69.7785,35.8405 59.3395,30.6305 58.9145,24.5405 L77.9545,24.5405 C78.3845,25.7485 79.5615,26.6215 81.2535,27.1975 C82.8555,27.7495 84.9355,28.0405 86.9125,28.0405 C91.8805,28.0405 95.1795,27.1615 95.1795,25.5655 C95.1795,20.4465 60.2615,23.9525 60.2615,11.0815 C60.2615,3.8995 71.3915,0.3095 86.5675,0.3095 C103.3985,0.3095 111.0775,5.0765 112.5395,10.9845 L93.6335,10.9845 Z" id="Fill-6"></path><path d="M143.9582,23.1584 L143.9582,34.9304 L124.0762,34.9304 L124.0762,1.1394 L152.7292,1.1394 C172.9272,1.1394 179.5992,4.2394 179.5992,10.8024 C179.5992,14.7084 176.4872,17.9474 169.4092,19.0814 C175.8082,20.3804 179.6842,21.1744 179.6842,27.9854 C179.6842,32.3834 179.4292,33.9114 181.7882,33.9114 L181.7882,34.9304 L161.6332,34.9304 C161.1352,34.1724 160.6442,32.0254 160.6442,29.0294 C160.6442,24.5954 159.2922,23.1584 150.0182,23.1584 L143.9582,23.1584 Z M143.9582,15.8004 L151.7702,15.8004 C157.9202,15.8004 161.2332,14.9024 161.2332,12.5734 C161.2332,10.2014 157.8662,9.0434 153.2202,9.0434 L143.9582,9.0434 L143.9582,15.8004 Z" id="Fill-8"></path><path d="M191.8146,34.9308 L191.8146,1.1398 L220.8136,1.1398 C234.4666,1.1398 245.3416,2.9838 245.3416,9.6618 C245.3416,13.1558 241.2846,15.6908 237.4206,17.0008 C243.9836,17.9478 247.5016,21.1188 247.5016,24.7528 C247.5016,32.2678 237.1716,34.9308 221.3766,34.9308 L191.8146,34.9308 Z M211.6786,20.8228 L211.6786,27.0448 L220.3586,27.0448 C225.2896,27.0448 228.9776,26.4748 228.9776,23.9518 C228.9776,21.0108 224.3556,20.8228 218.0056,20.8228 L211.6786,20.8228 Z M211.6786,9.0428 L211.6786,14.7078 L219.9636,14.7078 C223.9316,14.7078 226.7996,13.6838 226.7996,11.7478 C226.7996,9.0978 222.8876,9.0428 218.7026,9.0428 L211.6786,9.0428 Z" id="Fill-10"></path><polygon id="Fill-5" points="0.9597 34.9308 0.9597 1.1398 50.4417 1.1398 50.4417 9.0428 20.8357 9.0428 20.8357 13.8768 45.8867 13.8768 45.8867 21.7628 20.8357 21.7628 20.8357 27.0448 51.5877 27.0448 51.5877 34.9308"></polygon></g><g id="Everyone" transform="translate(19.000000, 28.000000)" fill="#231F20"><polygon id="Fill-14" points="0.862 40.6227 0.862 1.4157 22.012 1.4157 22.012 7.4507 8.966 7.4507 8.966 17.1067 20.987 17.1067 20.987 23.1367 8.966 23.1367 8.966 34.5877 22.43 34.5877 22.43 40.6227"></polygon><polygon id="Fill-16" points="24.572 1.4157 33.009 1.4157 39.008 29.9237 39.117 29.9237 45.88 1.4157 53.88 1.4157 43.623 40.6227 34.137 40.6227"></polygon><polygon id="Fill-18" points="57.5373 40.6227 57.5373 1.4157 78.6753 1.4157 78.6753 7.4507 65.6353 7.4507 65.6353 17.1067 77.6563 17.1067 77.6563 23.1367 65.6353 23.1367 65.6353 34.5877 79.1003 34.5877 79.1003 40.6227"></polygon><path d="M92.2985,18.3444 L95.8895,18.3444 C96.6775,18.3444 97.3325,18.1744 97.8845,17.8164 C98.4245,17.4584 98.8495,16.9854 99.1705,16.4334 C99.4855,15.8694 99.7165,15.2394 99.8385,14.5594 C99.9655,13.8804 100.0195,13.2134 100.0195,12.6004 C100.0195,10.7254 99.6615,9.3984 98.9275,8.6154 C98.1945,7.8394 97.1745,7.4504 95.8895,7.4504 L92.2985,7.4504 L92.2985,18.3444 Z M92.2985,40.6224 L84.2075,40.6224 L84.2075,1.4154 L99.1705,1.4154 C101.9545,1.4154 104.1625,2.2884 105.8065,4.0234 C107.4255,5.7644 108.2385,8.3244 108.2385,11.6664 C108.2385,14.1654 107.6925,16.2944 106.5945,18.0344 C105.5085,19.7574 103.6585,20.8614 101.0505,21.2924 L101.0505,21.3954 C101.4755,21.4684 102.0755,21.5714 102.8705,21.7224 C103.6585,21.8684 104.4355,22.1964 105.1995,22.7054 C105.9695,23.2024 106.6435,23.9614 107.2195,24.9554 C107.7895,25.9564 108.0745,27.3454 108.0745,29.1104 C108.0745,29.7224 108.0865,30.5904 108.1055,31.7184 C108.1175,32.8344 108.1595,33.9754 108.2385,35.1814 C108.3175,36.3764 108.4145,37.4804 108.5295,38.4994 C108.6565,39.5064 108.8085,40.2104 108.9965,40.6224 L101.0505,40.6224 C100.5055,39.4094 100.2325,38.1664 100.2195,36.8564 C100.2075,35.5704 100.1895,34.2784 100.1895,33.0044 C100.1895,31.8584 100.1775,30.7484 100.1655,29.7044 C100.1525,28.6494 99.9655,27.7404 99.6195,26.9504 C99.2795,26.1874 98.7155,25.5624 97.9085,25.0894 C97.1085,24.6214 95.9375,24.3854 94.3975,24.3854 L92.2985,24.3854 L92.2985,40.6224 Z" id="Fill-20"></path><polygon id="Fill-22" points="120.527 27.0485 110.374 1.4155 119.235 1.4155 125.027 17.9745 131.202 1.4155 139.457 1.4155 128.636 27.0485 128.636 40.6225 120.527 40.6225"></polygon><path d="M156.216,35.3942 C157.357,35.3942 158.272,35.1222 158.951,34.5572 C159.618,33.9992 160.14,33.1322 160.504,31.9732 C160.868,30.8212 161.087,29.3342 161.208,27.5092 C161.317,25.6712 161.372,23.5242 161.372,21.0252 C161.372,18.5262 161.317,16.3552 161.208,14.5352 C161.087,12.7042 160.868,11.2172 160.504,10.0592 C160.14,8.8882 159.618,8.0272 158.951,7.4752 C158.272,6.9112 157.357,6.6322 156.216,6.6322 C155.063,6.6322 154.154,6.9112 153.475,7.4752 C152.789,8.0272 152.274,8.8882 151.928,10.0592 C151.558,11.2172 151.334,12.7042 151.218,14.5352 C151.109,16.3552 151.054,18.5262 151.054,21.0252 C151.054,23.5242 151.109,25.6712 151.218,27.5092 C151.334,29.3342 151.558,30.8212 151.928,31.9732 C152.274,33.1322 152.789,33.9992 153.475,34.5572 C154.154,35.1222 155.063,35.3942 156.216,35.3942 M156.216,41.2592 C152.886,41.2592 150.32,40.6952 148.483,39.5612 C146.657,38.4212 145.335,36.8922 144.498,34.9882 C143.685,33.1022 143.206,30.9302 143.06,28.5102 C142.927,26.0782 142.842,23.5842 142.842,21.0252 C142.842,18.3992 142.927,15.8942 143.06,13.4562 C143.206,11.0472 143.685,8.8882 144.498,7.0142 C145.335,5.1222 146.657,3.6172 148.483,2.4772 C150.32,1.3312 152.886,0.7672 156.216,0.7672 C159.534,0.7672 162.118,1.3312 163.943,2.4772 C165.763,3.6172 167.091,5.1222 167.917,7.0142 C168.729,8.8882 169.208,11.0472 169.354,13.4562 C169.505,15.8942 169.572,18.3992 169.572,21.0252 C169.572,23.5842 169.505,26.0782 169.354,28.5102 C169.208,30.9302 168.729,33.1022 167.917,34.9882 C167.091,36.8922 165.763,38.4212 163.943,39.5612 C162.118,40.6952 159.534,41.2592 156.216,41.2592" id="Fill-24"></path><polygon id="Fill-26" points="176.0622 40.6227 176.0622 1.4157 187.0172 1.4157 197.3032 28.5527 197.4182 28.5527 197.4182 1.4157 204.9942 1.4157 204.9942 40.6227 194.3132 40.6227 183.7412 11.9517 183.6262 11.9517 183.6262 40.6227"></polygon><polygon id="Fill-28" points="211.7878 40.6227 211.7878 1.4157 232.9498 1.4157 232.9498 7.4507 219.9098 7.4507 219.9098 17.1067 231.9188 17.1067 231.9188 23.1367 219.9098 23.1367 219.9098 34.5877 233.3628 34.5877 233.3628 40.6227"></polygon></g><polygon id="E" fill="#231F20" points="31.3317 157.5241 180.4927 112.9671 195.4437 160.2051 120.7177 182.5131 126.8447 201.8501 195.8807 181.2391 210.7957 228.5071 141.8077 249.0821 148.2547 269.4371 225.4197 246.3761 240.3767 293.6021 88.7897 338.8931"></polygon></g></g></g></svg> 